<?xml version="1.0" encoding="iso-8859-1"?>
<svg version="1.1" xmlns="http://www.w3.org/2000/svg" xmlns:xlink="http://www.w3.org/1999/xlink" x="0px" y="0px" viewBox="0 0 600 600" style="enable-background:new 0 0 600 600;" xml:space="preserve">
	<g id="_x35_.png">
		<path style="fill:none;stroke:#000000;stroke-width:2;" d="M586.02,299.005c0,158.403-128.433,286.831-286.847,286.831 c-158.411,0-286.826-128.428-286.826-286.831c0-158.425,128.415-286.837,286.826-286.837 C457.586,12.168,586.02,140.58,586.02,299.005z"/>
	</g>
	<g id="_x36_.png_1_">
		<linearGradient id="_x36_.png_2_" gradientUnits="userSpaceOnUse" x1="85.7758" y1="85.5928" x2="509.7681" y2="509.5851">
			<stop  offset="0.1166" style="stop-color:#DCDDDE"/>
			<stop  offset="0.182" style="stop-color:#D2D4D5"/>
			<stop  offset="0.2982" style="stop-color:#B9BBBD"/>
			<stop  offset="0.4479" style="stop-color:#939598"/>
			<stop  offset="0.5828" style="stop-color:#939598"/>
			<stop  offset="0.8957" style="stop-color:#D1D3D4"/>
		</linearGradient>
		<path id="_x36_.png_3_" style="display:inline;fill:url(#_x36_.png_2_);" d="M299.172,4.333C134.521,4.333,1,136.25,1,299.005 c0,162.733,133.521,294.662,298.172,294.662c164.685,0,298.184-131.929,298.184-294.662 C597.356,136.25,463.857,4.333,299.172,4.333z M299.167,585.834c-158.411,0-286.826-128.428-286.826-286.831 c0-158.425,128.415-286.837,286.826-286.837c158.414,0,286.847,128.412,286.847,286.837 C586.015,457.406,457.581,585.834,299.167,585.834z"/>
	</g>
	<g id="_x37_.png">
		<path style="display:inline;fill:#A7A9AC;" d="M485.629,299.005c0,102.452-83.478,185.514-186.457,185.514 c-102.965,0-186.439-83.061-186.439-185.514c0-102.477,83.474-185.559,186.439-185.559 C402.151,113.446,485.629,196.528,485.629,299.005z"/>
	</g>
	<g id="_x34_.png_1_">
		<radialGradient id="SVGID_1_" cx="134.2447" cy="-25.4812" r="491.8361" gradientUnits="userSpaceOnUse">
			<stop  offset="0" style="stop-color:#CCD3E0"/>
			<stop  offset="0.201" style="stop-color:#9CA2AC"/>
			<stop  offset="0.5943" style="stop-color:#51555D"/>
			<stop  offset="0.8694" style="stop-color:#20232A"/>
			<stop  offset="1" style="stop-color:#000000"/>
		</radialGradient>
		<path style="display:inline;fill:url(#SVGID_1_);" d="M299.172,13.482c-157.696,0-285.498,127.823-285.498,285.523 c0,157.696,127.801,285.497,285.498,285.497c157.707,0,285.508-127.8,285.508-285.497C584.68,141.305,456.88,13.482,299.172,13.482 z M299.169,487.792c-105.677,0-191.346-84.523-191.346-188.778c0-104.28,85.669-188.823,191.346-188.823 c105.689,0,191.363,84.543,191.363,188.823C490.532,403.269,404.858,487.792,299.169,487.792z"/>
	</g>
	<g id="_x32_.png_1_">
		<g style="display:inline;">
			<linearGradient id="SVGID_2_" gradientUnits="userSpaceOnUse" x1="208.0318" y1="302.1474" x2="208.0318" y2="477.8142">
				<stop  offset="0.4724" style="stop-color:#FFFFFF"/>
				<stop  offset="0.99" style="stop-color:#D1D3D4"/>
			</linearGradient>
			<path style="fill:url(#SVGID_2_);" d="M295.995,302.149l-175.927-0.001c1.665,96.447,79.473,174.307,175.927,175.99V302.149z"/>
			<g>
				<linearGradient id="SVGID_3_" gradientUnits="userSpaceOnUse" x1="126.643" y1="322.7287" x2="262.2953" y2="484.1301">
					<stop  offset="0" style="stop-color:#EFF0F3"/>
					<stop  offset="0.1067" style="stop-color:#E8EAEC"/>
					<stop  offset="0.2464" style="stop-color:#DCDEE1"/>
					<stop  offset="0.4046" style="stop-color:#C8CACE"/>
					<stop  offset="0.5762" style="stop-color:#ACAFB2"/>
					<stop  offset="0.7587" style="stop-color:#898C8F"/>
					<stop  offset="0.9476" style="stop-color:#606163"/>
					<stop  offset="1" style="stop-color:#515254"/>
				</linearGradient>
				<path style="fill:url(#SVGID_3_);" d="M296.064,474.936c-94.652-1.651-171.104-78.118-172.758-172.752h-3.199 c1.722,96.448,79.494,174.241,175.957,175.951V474.936z"/>
				<polygon style="fill:#515254;" points="296.032,302.129 296.032,478.145 292.674,474.843 292.674,305.495"/>
				<polygon style="fill:#F1F2F2;" points="292.674,305.495 123.396,305.495 120.122,302.129 296.032,302.129"/>
			</g>
		</g>
	</g>
	<g id="_x31_.png_1_">
		<g style="display:inline;">
			<radialGradient id="SVGID_4_" cx="301.1544" cy="300.787" r="177.2572" gradientUnits="userSpaceOnUse">
				<stop  offset="0.411" style="stop-color:#2B93D1"/>
				<stop  offset="0.8589" style="stop-color:#1F6B9D"/>
			</radialGradient>
			<path style="fill:url(#SVGID_4_);" d="M302.364,302.149v175.989c96.458-1.69,174.286-79.548,175.954-175.989H302.364z"/>
			<g>
				<polygon style="fill:#74C1EC;" points="304.692,478.017 304.692,304.488 478.264,304.488 478.392,302.129 302.398,302.129 302.398,478.145"/>
				<path style="fill:#145179;" d="M475.127,304.553c-3.01,92.496-77.747,167.307-170.258,170.317l-2.436,3.265 c96.451-1.71,174.232-79.503,175.954-175.951C478.387,302.185,475.127,304.551,475.127,304.553z"/>
			</g>
		</g>
	</g>
	<g id="_x33_.png_1_">
		<g style="display:inline;">
			<linearGradient id="SVGID_5_" gradientUnits="userSpaceOnUse" x1="390.3399" y1="120.5443" x2="390.3399" y2="296.4338">
				<stop  offset="0.7423" style="stop-color:#FFFFFF"/>
				<stop  offset="1" style="stop-color:#E6E7E8"/>
			</linearGradient>
			<path style="fill:url(#SVGID_5_);" d="M302.364,295.78h175.952c-1.71-96.428-79.521-174.2-175.952-175.889V295.78z"/>
			<g>
				<linearGradient id="SVGID_6_" gradientUnits="userSpaceOnUse" x1="348.5689" y1="170.9356" x2="391.2748" y2="297.1693">
					<stop  offset="0" style="stop-color:#FFFFFF"/>
					<stop  offset="0.1067" style="stop-color:#F7F8F8"/>
					<stop  offset="0.2464" style="stop-color:#E9EAEB"/>
					<stop  offset="0.4046" style="stop-color:#D3D4D6"/>
					<stop  offset="0.5762" style="stop-color:#B3B5B7"/>
					<stop  offset="0.7587" style="stop-color:#8D8F92"/>
					<stop  offset="0.9476" style="stop-color:#616264"/>
					<stop  offset="1" style="stop-color:#515254"/>
				</linearGradient>
				<polygon style="fill:url(#SVGID_6_);" points="305.752,120.174 305.752,292.701 478.264,292.701 478.387,296.06 302.398,296.06 302.398,119.86"/>
				<linearGradient id="SVGID_7_" gradientUnits="userSpaceOnUse" x1="327.8022" y1="109.1973" x2="493.6003" y2="277.5075">
					<stop  offset="0" style="stop-color:#EFF0F3"/>
					<stop  offset="0.1067" style="stop-color:#E8EAEC"/>
					<stop  offset="0.2464" style="stop-color:#DCDEE1"/>
					<stop  offset="0.4046" style="stop-color:#C8CACE"/>
					<stop  offset="0.5762" style="stop-color:#ACAFB2"/>
					<stop  offset="0.7587" style="stop-color:#898C8F"/>
					<stop  offset="0.9476" style="stop-color:#606163"/>
					<stop  offset="1" style="stop-color:#515254"/>
				</linearGradient>
				<path style="fill:url(#SVGID_7_);" d="M475.146,292.702l3.241,3.307c-1.735-96.428-79.504-174.448-175.954-176.16l3.319,3.308 c91.968,3.314,165.967,77.251,169.348,169.229L475.146,292.702z"/>
			</g>
		</g>
	</g>
	<g id="_x30_.png">
		<g style="display:inline;">
			<radialGradient id="SVGID_8_" cx="295.5024" cy="295.1348" r="174.8737" gradientUnits="userSpaceOnUse">
				<stop  offset="0.3374" style="stop-color:#2B93D1"/>
				<stop  offset="0.7975" style="stop-color:#72C6EF"/>
			</radialGradient>
			<path style="fill:url(#SVGID_8_);" d="M295.995,295.78V119.89c-96.427,1.683-174.218,79.456-175.925,175.889L295.995,295.78z"/>
			<g>
				<polygon style="fill:#1F6B9D;" points="292.681,119.607 292.681,292.341 119.977,292.341 119.977,295.705 292.681,295.705 296.064,295.705 296.064,292.341 296.064,119.607"/>
				<path style="fill:#BED7E7;" d="M123.089,292.342c3.386-92.123,77.482-166.133,169.591-169.465l3.279-3.27 c-96.539,1.693-174.463,79.607-176.17,176.195L123.089,292.342z"/>
			</g>
		</g>
	</g>
	<g id="_x38_.png_1_">
		<g id="_x38_.png" style="display:inline;">
			<path d="M165.725,123.408c-6.07-5.918-15.428-7.67-24.192-2.214c1.639-4.389,0.965-8.795,0.099-11.233 c-3.795-6.943-5.123-7.788-8.23-10.405c-10.136-8.472-20.722-1.267-28.34,7.832l-36.711,43.736l57.714,48.425l38.745-46.151 C173.623,142.87,175.022,132.425,165.725,123.408L165.725,123.408z M91.032,144.483L91.032,144.483l22.04-26.289 c2.558-3.019,8.321-2.92,12.058,0.221c4.114,3.404,4.125,8.274,1.348,11.535l-21.789,26.005L91.032,144.483L91.032,144.483z M151.899,148.869L151.899,148.869l-22.974,27.391l-14.462-12.094l23.193-27.633c2.618-3.122,8.426-4.009,12.38-0.726 C154.515,139.549,154.958,145.207,151.899,148.869z"/>
			<linearGradient id="SVGID_9_" gradientUnits="userSpaceOnUse" x1="65.8386" y1="145.1552" x2="169.5744" y2="145.1552">
				<stop  offset="0.6442" style="stop-color:#FFFFFF"/>
				<stop  offset="0.7199" style="stop-color:#F3F4F4"/>
				<stop  offset="0.8486" style="stop-color:#DDDEDF"/>
				<stop  offset="1" style="stop-color:#BCBEC0"/>
			</linearGradient>
			<path style="fill:url(#SVGID_9_);" d="M163.213,120.896c-6.07-5.918-15.428-7.67-24.192-2.214 c1.639-4.389,0.965-8.795,0.099-11.233c-3.795-6.943-5.123-7.788-8.23-10.405c-10.136-8.472-20.722-1.267-28.34,7.832 l-36.711,43.736l57.714,48.425l38.745-46.151C171.111,140.358,172.51,129.913,163.213,120.896L163.213,120.896z M88.52,141.971 L88.52,141.971l22.04-26.289c2.558-3.019,8.321-2.92,12.058,0.221c4.114,3.404,4.125,8.274,1.348,11.535l-21.789,26.005 L88.52,141.971L88.52,141.971z M149.387,146.357L149.387,146.357l-22.974,27.391l-14.462-12.094l23.193-27.633 c2.618-3.122,8.426-4.009,12.38-0.726C152.003,137.037,152.445,142.695,149.387,146.357z"/>
		</g>
	</g>
	<g id="_x39_.png_1_">
		<g id="_x39_.png_3_" style="display:inline;">
			<polygon points="310.654,102.556 329.725,50.062 330.468,103.184 348.34,106.01 347.13,30.166 322.355,27.34 302.32,81.221 302.531,81.221 282.462,27.34 257.659,30.166 256.448,106.01 274.351,103.184 275.095,50.062 294.178,102.556"/>
			<linearGradient id="SVGID_10_" gradientUnits="userSpaceOnUse" x1="256.6047" y1="100.6335" x2="343.9" y2="29.0388">
				<stop  offset="0.4908" style="stop-color:#FFFFFF"/>
				<stop  offset="0.5991" style="stop-color:#F3F4F4"/>
				<stop  offset="0.7834" style="stop-color:#DDDEDF"/>
				<stop  offset="1" style="stop-color:#BCBEC0"/>
			</linearGradient>
			<polygon style="fill:url(#SVGID_10_);" points="306.993,100.044 326.064,47.55 326.808,100.672 344.68,103.498 343.47,27.654 318.695,24.827 298.66,78.709 298.871,78.709 278.824,24.827 254.021,27.654 252.81,103.498 270.713,100.672 271.457,47.55 290.539,100.044"/>
		</g>
	</g>
	<g id="_x31_0.png_1_">
		<g id="_x31_0.png" style="display:inline;">
			<polygon points="516.142,134.177 490.43,171.713 530.812,151.808 539.558,167.19 475.041,196.912 465.302,181.336 489.988,144.159 489.856,143.998 448.816,161.529 434.914,148.29 476.211,91.508 489.674,102.435 462.846,138.584 504.347,120.065"/>
			<g>
				<linearGradient id="SVGID_11_" gradientUnits="userSpaceOnUse" x1="431.2536" y1="142.1983" x2="535.8978" y2="142.1983">
					<stop  offset="0.2331" style="stop-color:#FFFFFF"/>
					<stop  offset="0.3962" style="stop-color:#F3F4F4"/>
					<stop  offset="0.6738" style="stop-color:#DDDEDF"/>
					<stop  offset="1" style="stop-color:#BCBEC0"/>
				</linearGradient>
				<polygon style="fill:url(#SVGID_11_);" points="513.358,133.214 486.77,169.701 527.152,149.797 535.898,165.178 471.381,194.9 461.641,179.325 486.328,142.147 486.196,141.987 445.156,159.518 431.254,146.279 472.551,89.497 486.014,100.423 459.186,136.573 501.563,119.102"/>
			</g>
		</g>
	</g>
</svg>
