<?xml version="1.0" encoding="iso-8859-1"?>
<svg version="1.1" xmlns="http://www.w3.org/2000/svg" xmlns:xlink="http://www.w3.org/1999/xlink" x="0px" y="0px" viewBox="0 0 600 600" style="enable-background:new 0 0 600 600;" xml:space="preserve">
	<g id="_x38_.png_1_">
		<g id="_x38_.png" style="display:inline;">
			<path d="M165.725,123.408c-6.07-5.918-15.428-7.67-24.192-2.214c1.639-4.389,0.965-8.795,0.099-11.233 c-3.795-6.943-5.123-7.788-8.23-10.405c-10.136-8.472-20.722-1.267-28.34,7.832l-36.711,43.736l57.714,48.425l38.745-46.151 C173.623,142.87,175.022,132.425,165.725,123.408L165.725,123.408z M91.032,144.483L91.032,144.483l22.04-26.289 c2.558-3.019,8.321-2.92,12.058,0.221c4.114,3.404,4.125,8.274,1.348,11.535l-21.789,26.005L91.032,144.483L91.032,144.483z M151.899,148.869L151.899,148.869l-22.974,27.391l-14.462-12.094l23.193-27.633c2.618-3.122,8.426-4.009,12.38-0.726 C154.515,139.549,154.958,145.207,151.899,148.869z"/>
			<linearGradient id="SVGID_9_" gradientUnits="userSpaceOnUse" x1="65.8386" y1="145.1552" x2="169.5744" y2="145.1552">
				<stop  offset="0.6442" style="stop-color:#FFFFFF"/>
				<stop  offset="0.7199" style="stop-color:#F3F4F4"/>
				<stop  offset="0.8486" style="stop-color:#DDDEDF"/>
				<stop  offset="1" style="stop-color:#BCBEC0"/>
			</linearGradient>
			<path style="fill:url(#SVGID_9_);" d="M163.213,120.896c-6.07-5.918-15.428-7.67-24.192-2.214 c1.639-4.389,0.965-8.795,0.099-11.233c-3.795-6.943-5.123-7.788-8.23-10.405c-10.136-8.472-20.722-1.267-28.34,7.832 l-36.711,43.736l57.714,48.425l38.745-46.151C171.111,140.358,172.51,129.913,163.213,120.896L163.213,120.896z M88.52,141.971 L88.52,141.971l22.04-26.289c2.558-3.019,8.321-2.92,12.058,0.221c4.114,3.404,4.125,8.274,1.348,11.535l-21.789,26.005 L88.52,141.971L88.52,141.971z M149.387,146.357L149.387,146.357l-22.974,27.391l-14.462-12.094l23.193-27.633 c2.618-3.122,8.426-4.009,12.38-0.726C152.003,137.037,152.445,142.695,149.387,146.357z"/>
		</g>
	</g>
</svg>
