# This file uses centimeters as units for non-parametric coordinates.

v -0.000000 -0.493016 0.201506
v 0.077125 -0.486946 0.201506
v 0.152350 -0.468886 0.201506
v 0.223824 -0.439280 0.201506
v 0.289787 -0.398858 0.201506
v 0.348615 -0.348615 0.201506
v 0.398858 -0.289787 0.201506
v 0.439280 -0.223824 0.201506
v 0.468886 -0.152350 0.201506
v 0.486946 -0.077125 0.201506
v 0.493016 -0.000000 0.201506
v -0.000000 -0.369762 0.217869
v 0.057843 -0.365209 0.217869
v 0.114263 -0.351664 0.217869
v 0.167868 -0.329460 0.217869
v 0.217341 -0.299144 0.217869
v 0.261461 -0.261461 0.217869
v 0.299144 -0.217341 0.217869
v 0.329460 -0.167868 0.217869
v 0.351664 -0.114263 0.217869
v 0.365209 -0.057843 0.217869
v 0.369762 0.000000 0.217869
v -0.000000 -0.244654 0.224532
v 0.038272 -0.241642 0.224532
v 0.075602 -0.232680 0.224532
v 0.111071 -0.217988 0.224532
v 0.143804 -0.197929 0.224532
v 0.172997 -0.172997 0.224532
v 0.197929 -0.143804 0.224532
v 0.217988 -0.111071 0.224532
v 0.232680 -0.075602 0.224532
v 0.241642 -0.038272 0.224532
v 0.244654 -0.000000 0.224532
v -0.000000 -0.121583 0.231713
v 0.019020 -0.120086 0.231713
v 0.037571 -0.115632 0.231714
v 0.055197 -0.108331 0.231713
v 0.071464 -0.098362 0.231713
v 0.085972 -0.085972 0.231713
v 0.098362 -0.071465 0.231713
v 0.108331 -0.055197 0.231714
v 0.115632 -0.037571 0.231713
v 0.120086 -0.019020 0.231713
v 0.121583 -0.000000 0.231713
v 0.000000 -0.000000 0.235538
v -0.000000 -0.616270 0.179498
v 0.096406 -0.608683 0.179498
v 0.190438 -0.586107 0.179498
v 0.279781 -0.549100 0.179498
v 0.362234 -0.498573 0.179498
v 0.435768 -0.435769 0.179498
v 0.498573 -0.362234 0.179498
v 0.549100 -0.279781 0.179498
v 0.586107 -0.190438 0.179498
v 0.608682 -0.096406 0.179498
v 0.616270 -0.000000 0.179498
vt 0.001695 0.001992
vt 0.134235 0.014255
vt 0.126428 0.211005
vt 0.020395 0.201195
vt 0.263513 0.050740
vt 0.229849 0.240194
vt 0.113822 0.407756
vt 0.034298 0.400398
vt 0.386343 0.110551
vt 0.328114 0.288043
vt 0.191389 0.429647
vt 0.092577 0.607466
vt 0.039959 0.602598
vt 0.499702 0.192214
vt 0.418801 0.353373
vt 0.265087 0.465534
vt 0.143899 0.621950
vt 0.072210 0.803925
vt 0.046062 0.801506
vt 0.600798 0.293718
vt 0.499678 0.434576
vt 0.333102 0.514532
vt 0.192661 0.645695
vt 0.097715 0.811123
vt 0.049312 0.998008
vt 0.687143 0.412565
vt 0.568754 0.529653
vt 0.393760 0.575434
vt 0.237664 0.678114
vt 0.121948 0.822923
vt 0.756609 0.545826
vt 0.624327 0.636263
vt 0.445567 0.646742
vt 0.277799 0.718411
vt 0.144313 0.839034
vt 0.807487 0.690222
vt 0.665029 0.751779
vt 0.487247 0.726699
vt 0.312077 0.765592
vt 0.164258 0.859060
vt 0.838524 0.842197
vt 0.689858 0.873359
vt 0.517774 0.813336
vt 0.339654 0.818496
vt 0.181292 0.882507
vt 0.848955 0.998008
vt 0.698204 0.998008
vt 0.536396 0.904521
vt 0.359852 0.875820
vt 0.194997 0.908798
vt 0.542654 0.998008
vt 0.372174 0.936152
vt 0.205035 0.937286
vt 0.376315 0.998008
vt 0.211158 0.967268
vt 0.213216 0.998008
vn 0.013833 -0.175765 0.984335
vn 0.028002 -0.173537 0.984429
vn 0.012275 -0.155972 0.987685
vn 0.024920 -0.153845 0.987781
vn 0.054805 -0.167020 0.984429
vn 0.048680 -0.148052 0.987781
vn 0.080258 -0.156391 0.984429
vn 0.071241 -0.138614 0.987781
vn 0.103735 -0.141910 0.984429
vn 0.092048 -0.125763 0.987781
vn 0.124657 -0.123935 0.984429
vn 0.110589 -0.109815 0.987781
vn 0.142510 -0.102908 0.984429
vn 0.126406 -0.091164 0.987781
vn 0.156854 -0.079348 0.984429
vn 0.139111 -0.070267 0.987781
vn 0.167336 -0.053834 0.984429
vn 0.148390 -0.047640 0.987781
vn 0.173697 -0.026994 0.984429
vn 0.154016 -0.023840 0.987781
vn 0.175765 -0.013833 0.984335
vn 0.155691 -0.012253 0.987730
vn 0.007588 -0.096417 0.995312
vn 0.015394 -0.094784 0.995379
vn 0.030032 -0.091209 0.995379
vn 0.043930 -0.085388 0.995379
vn 0.056747 -0.077465 0.995379
vn 0.068167 -0.067634 0.995379
vn 0.077908 -0.056138 0.995379
vn 0.085730 -0.043259 0.995379
vn 0.091442 -0.029316 0.995379
vn 0.094902 -0.014650 0.995379
vn 0.095591 -0.007523 0.995392
vn 0.004361 -0.055408 0.998454
vn 0.008876 -0.054741 0.998461
vn 0.017330 -0.052678 0.998461
vn 0.025358 -0.049318 0.998461
vn 0.032760 -0.044744 0.998461
vn 0.039357 -0.039069 0.998461
vn 0.044984 -0.032431 0.998461
vn 0.049503 -0.024995 0.998461
vn 0.052804 -0.016943 0.998461
vn 0.054804 -0.008474 0.998461
vn 0.055505 -0.004368 0.998449
vn 0.003680 -0.046761 0.998899
vn 0.007444 -0.045612 0.998932
vn 0.014488 -0.043885 0.998932
vn 0.021176 -0.041078 0.998932
vn 0.027341 -0.037260 0.998932
vn 0.032833 -0.032524 0.998932
vn 0.037516 -0.026988 0.998932
vn 0.041276 -0.020787 0.998932
vn 0.044020 -0.014073 0.998932
vn 0.045680 -0.007014 0.998932
vn 0.045612 -0.003590 0.998953
vn 0.020101 -0.020101 0.999596
s 1
f 46/1/1 47/2/2 1/4/3
f 1/4/3 47/2/2 2/3/4
f 47/2/2 48/5/5 2/3/4
f 2/3/4 48/5/5 3/6/6
f 48/5/5 49/9/7 3/6/6
f 3/6/6 49/9/7 4/10/8
f 49/9/7 50/14/9 4/10/8
f 4/10/8 50/14/9 5/15/10
f 50/14/9 51/20/11 5/15/10
f 5/15/10 51/20/11 6/21/12
f 51/20/11 52/26/13 6/21/12
f 6/21/12 52/26/13 7/27/14
f 52/26/13 53/31/15 7/27/14
f 7/27/14 53/31/15 8/32/16
f 53/31/15 54/36/17 8/32/16
f 8/32/16 54/36/17 9/37/18
f 54/36/17 55/41/19 9/37/18
f 9/37/18 55/41/19 10/42/20
f 55/41/19 56/46/21 10/42/20
f 10/42/20 56/46/21 11/47/22
f 1/4/3 2/3/4 12/8/23
f 12/8/23 2/3/4 13/7/24
f 2/3/4 3/6/6 13/7/24
f 13/7/24 3/6/6 14/11/25
f 3/6/6 4/10/8 14/11/25
f 14/11/25 4/10/8 15/16/26
f 4/10/8 5/15/10 15/16/26
f 15/16/26 5/15/10 16/22/27
f 5/15/10 6/21/12 16/22/27
f 16/22/27 6/21/12 17/28/28
f 6/21/12 7/27/14 17/28/28
f 17/28/28 7/27/14 18/33/29
f 7/27/14 8/32/16 18/33/29
f 18/33/29 8/32/16 19/38/30
f 8/32/16 9/37/18 19/38/30
f 19/38/30 9/37/18 20/43/31
f 9/37/18 10/42/20 20/43/31
f 20/43/31 10/42/20 21/48/32
f 10/42/20 11/47/22 21/48/32
f 21/48/32 11/47/22 22/51/33
f 12/8/23 13/7/24 23/13/34
f 23/13/34 13/7/24 24/12/35
f 13/7/24 14/11/25 24/12/35
f 24/12/35 14/11/25 25/17/36
f 14/11/25 15/16/26 25/17/36
f 25/17/36 15/16/26 26/23/37
f 15/16/26 16/22/27 26/23/37
f 26/23/37 16/22/27 27/29/38
f 16/22/27 17/28/28 27/29/38
f 27/29/38 17/28/28 28/34/39
f 17/28/28 18/33/29 28/34/39
f 28/34/39 18/33/29 29/39/40
f 18/33/29 19/38/30 29/39/40
f 29/39/40 19/38/30 30/44/41
f 19/38/30 20/43/31 30/44/41
f 30/44/41 20/43/31 31/49/42
f 20/43/31 21/48/32 31/49/42
f 31/49/42 21/48/32 32/52/43
f 21/48/32 22/51/33 32/52/43
f 32/52/43 22/51/33 33/54/44
f 23/13/34 24/12/35 34/19/45
f 34/19/45 24/12/35 35/18/46
f 24/12/35 25/17/36 35/18/46
f 35/18/46 25/17/36 36/24/47
f 25/17/36 26/23/37 36/24/47
f 36/24/47 26/23/37 37/30/48
f 26/23/37 27/29/38 37/30/48
f 37/30/48 27/29/38 38/35/49
f 27/29/38 28/34/39 38/35/49
f 38/35/49 28/34/39 39/40/50
f 28/34/39 29/39/40 39/40/50
f 39/40/50 29/39/40 40/45/51
f 29/39/40 30/44/41 40/45/51
f 40/45/51 30/44/41 41/50/52
f 30/44/41 31/49/42 41/50/52
f 41/50/52 31/49/42 42/53/53
f 31/49/42 32/52/43 42/53/53
f 42/53/53 32/52/43 43/55/54
f 32/52/43 33/54/44 43/55/54
f 43/55/54 33/54/44 44/56/55
f 34/19/45 35/18/46 45/25/56
f 35/18/46 36/24/47 45/25/56
f 36/24/47 37/30/48 45/25/56
f 37/30/48 38/35/49 45/25/56
f 38/35/49 39/40/50 45/25/56
f 39/40/50 40/45/51 45/25/56
f 40/45/51 41/50/52 45/25/56
f 41/50/52 42/53/53 45/25/56
f 42/53/53 43/55/54 45/25/56
f 43/55/54 44/56/55 45/25/56
