# This file uses centimeters as units for non-parametric coordinates.

v 0.852156 0.134968 0.147997
v 0.820551 0.266613 0.147997
v 0.768741 0.391693 0.147997
v 0.698002 0.507128 0.147997
v 0.610076 0.610076 0.147997
v 0.507128 0.698002 0.147997
v 0.391693 0.768741 0.147997
v 0.266613 0.820551 0.147997
v 0.134968 0.852156 0.147997
v 0.000000 0.862778 0.147997
v -0.134968 0.852156 0.147997
v -0.266613 0.820551 0.147997
v -0.391693 0.768741 0.147997
v -0.507128 0.698002 0.147997
v -0.610076 0.610076 0.147997
v -0.698002 0.507128 0.147997
v -0.768741 0.391693 0.147997
v -0.820550 0.266613 0.147997
v -0.852156 0.134968 0.147997
v -0.862778 0.000000 0.147997
v -0.852156 -0.134968 0.147997
v -0.820550 -0.266613 0.147997
v -0.768741 -0.391693 0.147997
v -0.698002 -0.507128 0.147997
v -0.610076 -0.610076 0.147997
v -0.507128 -0.698002 0.147997
v -0.391693 -0.768741 0.147997
v -0.266613 -0.820550 0.147997
v -0.134968 -0.852156 0.147997
v -0.000000 -0.862778 0.147997
v 0.134968 -0.852156 0.147997
v 0.266613 -0.820550 0.147997
v 0.391693 -0.768741 0.147997
v 0.507128 -0.698002 0.147997
v 0.610076 -0.610076 0.147997
v 0.698002 -0.507128 0.147997
v 0.768740 -0.391693 0.147997
v 0.820550 -0.266613 0.147997
v 0.852155 -0.134968 0.147997
v 0.862777 0.000000 0.147997
v 0.730419 0.115687 0.161474
v 0.703329 0.228525 0.161474
v 0.658921 0.335737 0.161474
v 0.598288 0.434681 0.161474
v 0.522923 0.522922 0.161474
v 0.434681 0.598287 0.161474
v 0.335737 0.658921 0.161474
v 0.228526 0.703329 0.161474
v 0.115687 0.730419 0.161474
v 0.000000 0.739524 0.161474
v -0.115687 0.730419 0.161474
v -0.228525 0.703329 0.161474
v -0.335737 0.658921 0.161474
v -0.434681 0.598287 0.161474
v -0.522922 0.522923 0.161474
v -0.598287 0.434681 0.161474
v -0.658920 0.335737 0.161474
v -0.703329 0.228526 0.161474
v -0.730419 0.115687 0.161474
v -0.739524 0.000000 0.161474
v -0.730419 -0.115687 0.161474
v -0.703329 -0.228525 0.161474
v -0.658921 -0.335737 0.161474
v -0.598287 -0.434681 0.161474
v -0.522922 -0.522922 0.161474
v -0.434681 -0.598287 0.161474
v -0.335737 -0.658920 0.161474
v -0.228526 -0.703329 0.161474
v -0.115687 -0.730419 0.161474
v -0.000000 -0.739524 0.161474
v 0.115687 -0.730419 0.161474
v 0.228525 -0.703329 0.161474
v 0.335737 -0.658921 0.161474
v 0.434681 -0.598287 0.161474
v 0.522922 -0.522922 0.161474
v 0.598287 -0.434681 0.161474
v 0.658920 -0.335737 0.161474
v 0.703329 -0.228525 0.161474
v 0.730419 -0.115687 0.161474
v 0.739524 0.000000 0.161474
v 0.608683 0.096406 0.179498
v 0.586108 0.190438 0.179498
v 0.549101 0.279781 0.179498
v 0.498573 0.362234 0.179498
v 0.435769 0.435769 0.179498
v 0.362235 0.498573 0.179498
v 0.279781 0.549101 0.179498
v 0.190438 0.586108 0.179498
v 0.096406 0.608683 0.179498
v 0.000000 0.616270 0.179498
v -0.096406 0.608683 0.179498
v -0.190438 0.586108 0.179498
v -0.279781 0.549101 0.179498
v -0.362234 0.498573 0.179498
v -0.435769 0.435769 0.179498
v -0.498573 0.362234 0.179498
v -0.549100 0.279781 0.179498
v -0.586107 0.190438 0.179498
v -0.608683 0.096406 0.179498
v -0.616270 0.000000 0.179498
v -0.608683 -0.096406 0.179498
v -0.586107 -0.190438 0.179498
v -0.549100 -0.279781 0.179498
v -0.498573 -0.362234 0.179498
v -0.435769 -0.435768 0.179498
v -0.362234 -0.498573 0.179498
v -0.279781 -0.549100 0.179498
v -0.190438 -0.586107 0.179498
v -0.096406 -0.608683 0.179498
v -0.000000 -0.616270 0.179498
v 0.096406 -0.608683 0.179498
v 0.190438 -0.586107 0.179498
v 0.279781 -0.549100 0.179498
v 0.362234 -0.498573 0.179498
v 0.435768 -0.435769 0.179498
v 0.498573 -0.362234 0.179498
v 0.549100 -0.279781 0.179498
v 0.586107 -0.190438 0.179498
v 0.608682 -0.096406 0.179498
v 0.616270 0.000000 0.179498
v 0.956740 0.151533 0.130697
v 0.921256 0.299334 0.130697
v 0.863088 0.439765 0.130697
v 0.783668 0.569368 0.130697
v 0.684951 0.684950 0.130697
v 0.569368 0.783667 0.130697
v 0.439766 0.863088 0.130697
v 0.299335 0.921256 0.130697
v 0.151533 0.956740 0.130697
v 0.000000 0.968666 0.130697
v -0.151533 0.956740 0.130697
v -0.299334 0.921256 0.130697
v -0.439765 0.863088 0.130697
v -0.569367 0.783668 0.130697
v -0.684950 0.684951 0.130697
v -0.783667 0.569368 0.130697
v -0.863088 0.439765 0.130697
v -0.921256 0.299334 0.130697
v -0.956740 0.151533 0.130697
v -0.968666 0.000000 0.130697
v -0.956740 -0.151533 0.130697
v -0.921256 -0.299334 0.130697
v -0.863088 -0.439765 0.130697
v -0.783667 -0.569367 0.130697
v -0.684950 -0.684950 0.130697
v -0.569368 -0.783667 0.130697
v -0.439765 -0.863088 0.130697
v -0.299334 -0.921256 0.130697
v -0.151533 -0.956740 0.130697
v -0.000000 -0.968666 0.130697
v 0.151533 -0.956740 0.130697
v 0.299334 -0.921256 0.130697
v 0.439765 -0.863088 0.130697
v 0.569367 -0.783667 0.130697
v 0.684950 -0.684950 0.130697
v 0.783667 -0.569368 0.130697
v 0.863087 -0.439765 0.130697
v 0.921256 -0.299334 0.130697
v 0.956740 -0.151533 0.130697
v 0.968666 0.000000 0.130697
vt 0.635036 0.865138
vt 0.630027 0.885998
vt 0.611452 0.879963
vt 0.615745 0.862082
vt 0.621817 0.905819
vt 0.604415 0.896952
vt 0.610608 0.924111
vt 0.594807 0.912631
vt 0.596675 0.940425
vt 0.582864 0.926614
vt 0.580361 0.954358
vt 0.568881 0.938557
vt 0.562069 0.965567
vt 0.553202 0.948165
vt 0.542248 0.973777
vt 0.536213 0.955202
vt 0.521388 0.978786
vt 0.518332 0.959495
vt 0.500000 0.980469
vt 0.500000 0.960938
vt 0.478612 0.978786
vt 0.481668 0.959495
vt 0.457752 0.973777
vt 0.463787 0.955202
vt 0.437931 0.965567
vt 0.446798 0.948165
vt 0.419639 0.954358
vt 0.431119 0.938557
vt 0.403325 0.940425
vt 0.417136 0.926614
vt 0.389392 0.924111
vt 0.405193 0.912631
vt 0.378183 0.905819
vt 0.395585 0.896952
vt 0.369973 0.885998
vt 0.388548 0.879963
vt 0.364964 0.865138
vt 0.384255 0.862082
vt 0.363281 0.843750
vt 0.382812 0.843750
vt 0.364964 0.822362
vt 0.384255 0.825418
vt 0.369973 0.801502
vt 0.388548 0.807537
vt 0.378183 0.781681
vt 0.395585 0.790548
vt 0.389392 0.763389
vt 0.405193 0.774869
vt 0.403325 0.747075
vt 0.417136 0.760886
vt 0.419639 0.733142
vt 0.431119 0.748943
vt 0.437931 0.721933
vt 0.446798 0.739335
vt 0.457752 0.713723
vt 0.463787 0.732298
vt 0.478612 0.708714
vt 0.481668 0.728005
vt 0.500000 0.707031
vt 0.500000 0.726562
vt 0.521388 0.708714
vt 0.518332 0.728005
vt 0.542248 0.713723
vt 0.536213 0.732298
vt 0.562069 0.721933
vt 0.553202 0.739335
vt 0.580361 0.733142
vt 0.568881 0.748943
vt 0.596675 0.747075
vt 0.582864 0.760886
vt 0.610608 0.763389
vt 0.594807 0.774869
vt 0.621817 0.781681
vt 0.604415 0.790548
vt 0.630027 0.801502
vt 0.611452 0.807537
vt 0.635036 0.822362
vt 0.615745 0.825418
vt 0.636719 0.843750
vt 0.617188 0.843750
vt 0.592877 0.873927
vt 0.596454 0.859027
vt 0.587012 0.888085
vt 0.579006 0.901151
vt 0.569053 0.912803
vt 0.557401 0.922756
vt 0.544335 0.930762
vt 0.530177 0.936627
vt 0.515277 0.940204
vt 0.500000 0.941406
vt 0.484723 0.940204
vt 0.469823 0.936627
vt 0.455665 0.930762
vt 0.442599 0.922756
vt 0.430947 0.912803
vt 0.420994 0.901151
vt 0.412988 0.888085
vt 0.407123 0.873927
vt 0.403546 0.859027
vt 0.402344 0.843750
vt 0.403546 0.828473
vt 0.407123 0.813573
vt 0.412988 0.799415
vt 0.420994 0.786349
vt 0.430947 0.774697
vt 0.442599 0.764744
vt 0.455665 0.756738
vt 0.469823 0.750873
vt 0.484723 0.747296
vt 0.500000 0.746094
vt 0.515277 0.747296
vt 0.530177 0.750873
vt 0.544335 0.756738
vt 0.557401 0.764744
vt 0.569053 0.774697
vt 0.579006 0.786349
vt 0.587012 0.799415
vt 0.592877 0.813573
vt 0.596454 0.828473
vt 0.597656 0.843750
vt 0.651537 0.867751
vt 0.645917 0.891161
vt 0.636704 0.913404
vt 0.624124 0.933932
vt 0.608489 0.952239
vt 0.590182 0.967874
vt 0.569654 0.980454
vt 0.547411 0.989667
vt 0.524001 0.995287
vt 0.500000 0.997176
vt 0.475999 0.995287
vt 0.452589 0.989667
vt 0.430346 0.980454
vt 0.409818 0.967874
vt 0.391511 0.952239
vt 0.375876 0.933932
vt 0.363296 0.913404
vt 0.354083 0.891161
vt 0.348463 0.867751
vt 0.346574 0.843750
vt 0.348463 0.819749
vt 0.354083 0.796339
vt 0.363296 0.774096
vt 0.375876 0.753568
vt 0.391511 0.735261
vt 0.409818 0.719626
vt 0.430346 0.707046
vt 0.452589 0.697833
vt 0.475999 0.692213
vt 0.500000 0.690324
vt 0.524001 0.692213
vt 0.547411 0.697833
vt 0.569654 0.707046
vt 0.590182 0.719626
vt 0.608489 0.735261
vt 0.624124 0.753568
vt 0.636704 0.774096
vt 0.645917 0.796339
vt 0.651537 0.819749
vt 0.653426 0.843750
vn 0.133632 0.021552 0.990797
vn 0.128616 0.042192 0.990797
vn 0.123554 0.019960 0.992137
vn 0.118911 0.039042 0.992137
vn 0.120432 0.061792 0.990797
vn 0.111339 0.057163 0.992137
vn 0.109282 0.079871 0.990797
vn 0.101026 0.073877 0.992137
vn 0.095442 0.095983 0.990797
vn 0.088225 0.088771 0.992137
vn 0.079252 0.109732 0.990797
vn 0.073252 0.101480 0.992137
vn 0.061111 0.120779 0.990797
vn 0.056476 0.111690 0.992137
vn 0.041464 0.128852 0.990797
vn 0.038308 0.119149 0.992137
vn 0.020797 0.133752 0.990797
vn 0.019197 0.123675 0.992137
vn -0.000382 0.135359 0.990797
vn -0.000386 0.125155 0.992137
vn -0.021553 0.133632 0.990797
vn -0.019960 0.123554 0.992137
vn -0.042192 0.128616 0.990797
vn -0.039042 0.118911 0.992137
vn -0.061792 0.120432 0.990797
vn -0.057163 0.111340 0.992137
vn -0.079871 0.109282 0.990797
vn -0.073877 0.101026 0.992137
vn -0.095983 0.095442 0.990797
vn -0.088771 0.088226 0.992137
vn -0.109732 0.079252 0.990797
vn -0.101480 0.073253 0.992137
vn -0.120779 0.061111 0.990797
vn -0.111690 0.056476 0.992137
vn -0.128852 0.041464 0.990797
vn -0.119149 0.038308 0.992137
vn -0.133752 0.020797 0.990797
vn -0.123675 0.019198 0.992137
vn -0.135358 -0.000382 0.990797
vn -0.125155 -0.000386 0.992137
vn -0.133632 -0.021552 0.990797
vn -0.123554 -0.019960 0.992137
vn -0.128615 -0.042192 0.990797
vn -0.118911 -0.039042 0.992137
vn -0.120432 -0.061792 0.990797
vn -0.111339 -0.057163 0.992137
vn -0.109283 -0.079871 0.990797
vn -0.101026 -0.073877 0.992137
vn -0.095442 -0.095983 0.990797
vn -0.088225 -0.088771 0.992137
vn -0.079252 -0.109732 0.990797
vn -0.073252 -0.101480 0.992137
vn -0.061111 -0.120779 0.990797
vn -0.056476 -0.111690 0.992137
vn -0.041464 -0.128852 0.990797
vn -0.038308 -0.119149 0.992137
vn -0.020797 -0.133752 0.990797
vn -0.019197 -0.123675 0.992137
vn 0.000382 -0.135358 0.990797
vn 0.000386 -0.125155 0.992137
vn 0.021552 -0.133632 0.990797
vn 0.019960 -0.123554 0.992137
vn 0.042192 -0.128615 0.990797
vn 0.039042 -0.118911 0.992137
vn 0.061792 -0.120432 0.990797
vn 0.057163 -0.111340 0.992137
vn 0.079871 -0.109283 0.990797
vn 0.073877 -0.101026 0.992137
vn 0.095983 -0.095443 0.990797
vn 0.088771 -0.088225 0.992137
vn 0.109732 -0.079252 0.990797
vn 0.101480 -0.073252 0.992137
vn 0.120779 -0.061111 0.990797
vn 0.111689 -0.056475 0.992137
vn 0.128852 -0.041464 0.990797
vn 0.119149 -0.038308 0.992137
vn 0.133752 -0.020797 0.990797
vn 0.123675 -0.019197 0.992137
vn 0.135359 0.000382 0.990797
vn 0.125155 0.000386 0.992137
vn 0.142834 0.023147 0.989476
vn 0.137454 0.045207 0.989476
vn 0.128690 0.066153 0.989476
vn 0.116758 0.085470 0.989476
vn 0.101949 0.102682 0.989476
vn 0.084631 0.117366 0.989476
vn 0.065229 0.129161 0.989476
vn 0.044221 0.137775 0.989476
vn 0.022124 0.142996 0.989476
vn -0.000518 0.144696 0.989476
vn -0.023147 0.142834 0.989476
vn -0.045206 0.137455 0.989476
vn -0.066153 0.128691 0.989476
vn -0.085470 0.116758 0.989476
vn -0.102683 0.101949 0.989476
vn -0.117367 0.084631 0.989476
vn -0.129161 0.065229 0.989476
vn -0.137775 0.044221 0.989476
vn -0.142996 0.022124 0.989476
vn -0.144697 -0.000518 0.989476
vn -0.142834 -0.023147 0.989476
vn -0.137454 -0.045207 0.989476
vn -0.128690 -0.066152 0.989476
vn -0.116757 -0.085469 0.989476
vn -0.101949 -0.102682 0.989476
vn -0.084631 -0.117367 0.989476
vn -0.065229 -0.129161 0.989476
vn -0.044221 -0.137775 0.989476
vn -0.022124 -0.142996 0.989476
vn 0.000518 -0.144696 0.989476
vn 0.023147 -0.142834 0.989476
vn 0.045206 -0.137454 0.989476
vn 0.066152 -0.128690 0.989476
vn 0.085469 -0.116757 0.989476
vn 0.102682 -0.101949 0.989476
vn 0.117366 -0.084631 0.989476
vn 0.129160 -0.065229 0.989476
vn 0.137774 -0.044221 0.989476
vn 0.142996 -0.022124 0.989476
vn 0.144696 0.000518 0.989476
vn 0.159193 0.025628 0.986915
vn 0.153224 0.050216 0.986915
vn 0.143483 0.073567 0.986915
vn 0.130207 0.095107 0.986915
vn 0.113726 0.114305 0.986915
vn 0.094445 0.130688 0.986915
vn 0.072838 0.143853 0.986915
vn 0.049437 0.153477 0.986915
vn 0.024820 0.159322 0.986915
vn -0.000409 0.161243 0.986915
vn -0.025628 0.159194 0.986915
vn -0.050216 0.153225 0.986915
vn -0.073567 0.143482 0.986915
vn -0.095107 0.130207 0.986915
vn -0.114304 0.113726 0.986915
vn -0.130688 0.094445 0.986915
vn -0.143854 0.072838 0.986915
vn -0.153477 0.049438 0.986915
vn -0.159321 0.024820 0.986915
vn -0.161243 -0.000409 0.986915
vn -0.159193 -0.025628 0.986915
vn -0.153224 -0.050216 0.986915
vn -0.143482 -0.073567 0.986915
vn -0.130208 -0.095107 0.986915
vn -0.113726 -0.114305 0.986915
vn -0.094445 -0.130688 0.986915
vn -0.072838 -0.143854 0.986915
vn -0.049437 -0.153477 0.986915
vn -0.024820 -0.159321 0.986915
vn 0.000409 -0.161242 0.986915
vn 0.025628 -0.159193 0.986915
vn 0.050216 -0.153224 0.986915
vn 0.073567 -0.143482 0.986915
vn 0.095107 -0.130207 0.986915
vn 0.114305 -0.113727 0.986915
vn 0.130689 -0.094445 0.986915
vn 0.143854 -0.072838 0.986915
vn 0.153478 -0.049438 0.986915
vn 0.159322 -0.024820 0.986915
vn 0.161243 0.000409 0.986915
s 1
f 1/1/1 2/2/2 41/4/3
f 41/4/3 2/2/2 42/3/4
f 2/2/2 3/5/5 42/3/4
f 42/3/4 3/5/5 43/6/6
f 3/5/5 4/7/7 43/6/6
f 43/6/6 4/7/7 44/8/8
f 4/7/7 5/9/9 44/8/8
f 44/8/8 5/9/9 45/10/10
f 5/9/9 6/11/11 45/10/10
f 45/10/10 6/11/11 46/12/12
f 6/11/11 7/13/13 46/12/12
f 46/12/12 7/13/13 47/14/14
f 7/13/13 8/15/15 47/14/14
f 47/14/14 8/15/15 48/16/16
f 8/15/15 9/17/17 48/16/16
f 48/16/16 9/17/17 49/18/18
f 9/17/17 10/19/19 49/18/18
f 49/18/18 10/19/19 50/20/20
f 10/19/19 11/21/21 50/20/20
f 50/20/20 11/21/21 51/22/22
f 11/21/21 12/23/23 51/22/22
f 51/22/22 12/23/23 52/24/24
f 12/23/23 13/25/25 52/24/24
f 52/24/24 13/25/25 53/26/26
f 13/25/25 14/27/27 53/26/26
f 53/26/26 14/27/27 54/28/28
f 14/27/27 15/29/29 54/28/28
f 54/28/28 15/29/29 55/30/30
f 15/29/29 16/31/31 55/30/30
f 55/30/30 16/31/31 56/32/32
f 16/31/31 17/33/33 56/32/32
f 56/32/32 17/33/33 57/34/34
f 17/33/33 18/35/35 57/34/34
f 57/34/34 18/35/35 58/36/36
f 18/35/35 19/37/37 58/36/36
f 58/36/36 19/37/37 59/38/38
f 19/37/37 20/39/39 59/38/38
f 59/38/38 20/39/39 60/40/40
f 20/39/39 21/41/41 60/40/40
f 60/40/40 21/41/41 61/42/42
f 21/41/41 22/43/43 61/42/42
f 61/42/42 22/43/43 62/44/44
f 22/43/43 23/45/45 62/44/44
f 62/44/44 23/45/45 63/46/46
f 23/45/45 24/47/47 63/46/46
f 63/46/46 24/47/47 64/48/48
f 24/47/47 25/49/49 64/48/48
f 64/48/48 25/49/49 65/50/50
f 25/49/49 26/51/51 65/50/50
f 65/50/50 26/51/51 66/52/52
f 26/51/51 27/53/53 66/52/52
f 66/52/52 27/53/53 67/54/54
f 27/53/53 28/55/55 67/54/54
f 67/54/54 28/55/55 68/56/56
f 28/55/55 29/57/57 68/56/56
f 68/56/56 29/57/57 69/58/58
f 29/57/57 30/59/59 69/58/58
f 69/58/58 30/59/59 70/60/60
f 30/59/59 31/61/61 70/60/60
f 70/60/60 31/61/61 71/62/62
f 31/61/61 32/63/63 71/62/62
f 71/62/62 32/63/63 72/64/64
f 32/63/63 33/65/65 72/64/64
f 72/64/64 33/65/65 73/66/66
f 33/65/65 34/67/67 73/66/66
f 73/66/66 34/67/67 74/68/68
f 34/67/67 35/69/69 74/68/68
f 74/68/68 35/69/69 75/70/70
f 35/69/69 36/71/71 75/70/70
f 75/70/70 36/71/71 76/72/72
f 36/71/71 37/73/73 76/72/72
f 76/72/72 37/73/73 77/74/74
f 37/73/73 38/75/75 77/74/74
f 77/74/74 38/75/75 78/76/76
f 38/75/75 39/77/77 78/76/76
f 78/76/76 39/77/77 79/78/78
f 39/77/77 40/79/79 79/78/78
f 79/78/78 40/79/79 80/80/80
f 40/79/79 1/1/1 80/80/80
f 80/80/80 1/1/1 41/4/3
f 41/4/3 42/3/4 81/82/81
f 81/82/81 42/3/4 82/81/82
f 42/3/4 43/6/6 82/81/82
f 82/81/82 43/6/6 83/83/83
f 43/6/6 44/8/8 83/83/83
f 83/83/83 44/8/8 84/84/84
f 44/8/8 45/10/10 84/84/84
f 84/84/84 45/10/10 85/85/85
f 45/10/10 46/12/12 85/85/85
f 85/85/85 46/12/12 86/86/86
f 46/12/12 47/14/14 86/86/86
f 86/86/86 47/14/14 87/87/87
f 47/14/14 48/16/16 87/87/87
f 87/87/87 48/16/16 88/88/88
f 48/16/16 49/18/18 88/88/88
f 88/88/88 49/18/18 89/89/89
f 49/18/18 50/20/20 89/89/89
f 89/89/89 50/20/20 90/90/90
f 50/20/20 51/22/22 90/90/90
f 90/90/90 51/22/22 91/91/91
f 51/22/22 52/24/24 91/91/91
f 91/91/91 52/24/24 92/92/92
f 52/24/24 53/26/26 92/92/92
f 92/92/92 53/26/26 93/93/93
f 53/26/26 54/28/28 93/93/93
f 93/93/93 54/28/28 94/94/94
f 54/28/28 55/30/30 94/94/94
f 94/94/94 55/30/30 95/95/95
f 55/30/30 56/32/32 95/95/95
f 95/95/95 56/32/32 96/96/96
f 56/32/32 57/34/34 96/96/96
f 96/96/96 57/34/34 97/97/97
f 57/34/34 58/36/36 97/97/97
f 97/97/97 58/36/36 98/98/98
f 58/36/36 59/38/38 98/98/98
f 98/98/98 59/38/38 99/99/99
f 59/38/38 60/40/40 99/99/99
f 99/99/99 60/40/40 100/100/100
f 60/40/40 61/42/42 100/100/100
f 100/100/100 61/42/42 101/101/101
f 61/42/42 62/44/44 101/101/101
f 101/101/101 62/44/44 102/102/102
f 62/44/44 63/46/46 102/102/102
f 102/102/102 63/46/46 103/103/103
f 63/46/46 64/48/48 103/103/103
f 103/103/103 64/48/48 104/104/104
f 64/48/48 65/50/50 104/104/104
f 104/104/104 65/50/50 105/105/105
f 65/50/50 66/52/52 105/105/105
f 105/105/105 66/52/52 106/106/106
f 66/52/52 67/54/54 106/106/106
f 106/106/106 67/54/54 107/107/107
f 67/54/54 68/56/56 107/107/107
f 107/107/107 68/56/56 108/108/108
f 68/56/56 69/58/58 108/108/108
f 108/108/108 69/58/58 109/109/109
f 69/58/58 70/60/60 109/109/109
f 109/109/109 70/60/60 110/110/110
f 70/60/60 71/62/62 110/110/110
f 110/110/110 71/62/62 111/111/111
f 71/62/62 72/64/64 111/111/111
f 111/111/111 72/64/64 112/112/112
f 72/64/64 73/66/66 112/112/112
f 112/112/112 73/66/66 113/113/113
f 73/66/66 74/68/68 113/113/113
f 113/113/113 74/68/68 114/114/114
f 74/68/68 75/70/70 114/114/114
f 114/114/114 75/70/70 115/115/115
f 75/70/70 76/72/72 115/115/115
f 115/115/115 76/72/72 116/116/116
f 76/72/72 77/74/74 116/116/116
f 116/116/116 77/74/74 117/117/117
f 77/74/74 78/76/76 117/117/117
f 117/117/117 78/76/76 118/118/118
f 78/76/76 79/78/78 118/118/118
f 118/118/118 79/78/78 119/119/119
f 79/78/78 80/80/80 119/119/119
f 119/119/119 80/80/80 120/120/120
f 80/80/80 41/4/3 120/120/120
f 120/120/120 41/4/3 81/82/81
f 121/121/121 122/122/122 1/1/1
f 1/1/1 122/122/122 2/2/2
f 122/122/122 123/123/123 2/2/2
f 2/2/2 123/123/123 3/5/5
f 123/123/123 124/124/124 3/5/5
f 3/5/5 124/124/124 4/7/7
f 124/124/124 125/125/125 4/7/7
f 4/7/7 125/125/125 5/9/9
f 125/125/125 126/126/126 5/9/9
f 5/9/9 126/126/126 6/11/11
f 126/126/126 127/127/127 6/11/11
f 6/11/11 127/127/127 7/13/13
f 127/127/127 128/128/128 7/13/13
f 7/13/13 128/128/128 8/15/15
f 128/128/128 129/129/129 8/15/15
f 8/15/15 129/129/129 9/17/17
f 129/129/129 130/130/130 9/17/17
f 9/17/17 130/130/130 10/19/19
f 130/130/130 131/131/131 10/19/19
f 10/19/19 131/131/131 11/21/21
f 131/131/131 132/132/132 11/21/21
f 11/21/21 132/132/132 12/23/23
f 132/132/132 133/133/133 12/23/23
f 12/23/23 133/133/133 13/25/25
f 133/133/133 134/134/134 13/25/25
f 13/25/25 134/134/134 14/27/27
f 134/134/134 135/135/135 14/27/27
f 14/27/27 135/135/135 15/29/29
f 135/135/135 136/136/136 15/29/29
f 15/29/29 136/136/136 16/31/31
f 136/136/136 137/137/137 16/31/31
f 16/31/31 137/137/137 17/33/33
f 137/137/137 138/138/138 17/33/33
f 17/33/33 138/138/138 18/35/35
f 138/138/138 139/139/139 18/35/35
f 18/35/35 139/139/139 19/37/37
f 139/139/139 140/140/140 19/37/37
f 19/37/37 140/140/140 20/39/39
f 140/140/140 141/141/141 20/39/39
f 20/39/39 141/141/141 21/41/41
f 141/141/141 142/142/142 21/41/41
f 21/41/41 142/142/142 22/43/43
f 142/142/142 143/143/143 22/43/43
f 22/43/43 143/143/143 23/45/45
f 143/143/143 144/144/144 23/45/45
f 23/45/45 144/144/144 24/47/47
f 144/144/144 145/145/145 24/47/47
f 24/47/47 145/145/145 25/49/49
f 145/145/145 146/146/146 25/49/49
f 25/49/49 146/146/146 26/51/51
f 146/146/146 147/147/147 26/51/51
f 26/51/51 147/147/147 27/53/53
f 147/147/147 148/148/148 27/53/53
f 27/53/53 148/148/148 28/55/55
f 148/148/148 149/149/149 28/55/55
f 28/55/55 149/149/149 29/57/57
f 149/149/149 150/150/150 29/57/57
f 29/57/57 150/150/150 30/59/59
f 150/150/150 151/151/151 30/59/59
f 30/59/59 151/151/151 31/61/61
f 151/151/151 152/152/152 31/61/61
f 31/61/61 152/152/152 32/63/63
f 152/152/152 153/153/153 32/63/63
f 32/63/63 153/153/153 33/65/65
f 153/153/153 154/154/154 33/65/65
f 33/65/65 154/154/154 34/67/67
f 154/154/154 155/155/155 34/67/67
f 34/67/67 155/155/155 35/69/69
f 155/155/155 156/156/156 35/69/69
f 35/69/69 156/156/156 36/71/71
f 156/156/156 157/157/157 36/71/71
f 36/71/71 157/157/157 37/73/73
f 157/157/157 158/158/158 37/73/73
f 37/73/73 158/158/158 38/75/75
f 158/158/158 159/159/159 38/75/75
f 38/75/75 159/159/159 39/77/77
f 159/159/159 160/160/160 39/77/77
f 39/77/77 160/160/160 40/79/79
f 160/160/160 121/121/121 40/79/79
f 40/79/79 121/121/121 1/1/1
