# This file uses centimeters as units for non-parametric coordinates.

v -0.077125 0.486946 0.201506
v -0.152350 0.468886 0.201506
v -0.223824 0.439280 0.201506
v -0.289787 0.398858 0.201506
v -0.348615 0.348615 0.201506
v -0.398858 0.289788 0.201506
v -0.439280 0.223825 0.201506
v -0.468886 0.152350 0.201506
v -0.486946 0.077125 0.201506
v -0.057843 0.365210 0.217869
v -0.114263 0.351665 0.217869
v -0.167868 0.329460 0.217869
v -0.217341 0.299144 0.217869
v -0.261461 0.261461 0.217869
v -0.299144 0.217341 0.217869
v -0.329460 0.167868 0.217869
v -0.351664 0.114263 0.217869
v -0.365209 0.057844 0.217869
v -0.038272 0.241642 0.224532
v -0.075602 0.232680 0.224532
v -0.111071 0.217989 0.224532
v -0.143804 0.197929 0.224532
v -0.172997 0.172997 0.224532
v -0.197929 0.143804 0.224532
v -0.217988 0.111071 0.224532
v -0.232680 0.075602 0.224532
v -0.241642 0.038272 0.224532
v -0.019020 0.120086 0.231713
v -0.037571 0.115632 0.231713
v -0.055197 0.108331 0.231713
v -0.071464 0.098362 0.231714
v -0.085972 0.085972 0.231713
v -0.098362 0.071465 0.231713
v -0.108331 0.055197 0.231713
v -0.115632 0.037571 0.231713
v -0.120086 0.019020 0.231713
v 0.000000 0.616270 0.179498
v -0.096406 0.608683 0.179498
v 0.000000 0.493016 0.201506
v -0.190438 0.586108 0.179498
v -0.279781 0.549101 0.179498
v -0.362234 0.498573 0.179498
v -0.435769 0.435769 0.179498
v -0.498573 0.362234 0.179498
v -0.549100 0.279781 0.179498
v -0.586107 0.190438 0.179498
v -0.608683 0.096406 0.179498
v -0.616270 0.000000 0.179498
v -0.493016 0.000000 0.201506
v 0.000000 0.369762 0.217869
v -0.369762 0.000000 0.217869
v 0.000000 0.244654 0.224532
v -0.244654 0.000000 0.224532
v 0.000000 0.121583 0.231713
v -0.121583 -0.000000 0.231713
v 0.000000 -0.000000 0.235538
vt 0.849050 0.998008
vt 0.716510 0.985745
vt 0.761718 0.788995
vt 0.867750 0.798805
vt 0.587232 0.949259
vt 0.658296 0.759806
vt 0.802129 0.592244
vt 0.881653 0.599601
vt 0.464402 0.889449
vt 0.560032 0.711957
vt 0.724563 0.570352
vt 0.834697 0.392534
vt 0.887315 0.397402
vt 0.351043 0.807786
vt 0.469345 0.646627
vt 0.650864 0.534466
vt 0.783375 0.378050
vt 0.867268 0.196075
vt 0.893417 0.198494
vt 0.249947 0.706282
vt 0.388468 0.565424
vt 0.582849 0.485468
vt 0.734612 0.354305
vt 0.841763 0.188877
vt 0.896667 0.001992
vt 0.163602 0.587436
vt 0.319392 0.470347
vt 0.522191 0.424566
vt 0.689610 0.321886
vt 0.817531 0.177077
vt 0.094136 0.454174
vt 0.263819 0.363737
vt 0.470385 0.353258
vt 0.649475 0.281589
vt 0.795166 0.160966
vt 0.043258 0.309778
vt 0.223116 0.248221
vt 0.428705 0.273301
vt 0.615197 0.234408
vt 0.775221 0.140940
vt 0.012221 0.157803
vt 0.198287 0.126641
vt 0.398178 0.186664
vt 0.587620 0.181505
vt 0.758186 0.117493
vt 0.001790 0.001992
vt 0.189942 0.001992
vt 0.379556 0.095479
vt 0.567421 0.124181
vt 0.744481 0.091202
vt 0.373297 0.001992
vt 0.555100 0.063848
vt 0.734444 0.062714
vt 0.550959 0.001992
vt 0.728321 0.032732
vt 0.726262 0.001992
vn -0.013833 0.175764 0.984335
vn -0.028003 0.173537 0.984429
vn -0.012275 0.155972 0.987685
vn -0.024920 0.153845 0.987781
vn -0.054805 0.167020 0.984429
vn -0.048680 0.148052 0.987781
vn -0.080258 0.156390 0.984429
vn -0.071241 0.138614 0.987781
vn -0.103735 0.141910 0.984429
vn -0.092048 0.125763 0.987781
vn -0.124657 0.123935 0.984429
vn -0.110589 0.109816 0.987781
vn -0.142510 0.102909 0.984429
vn -0.126406 0.091164 0.987781
vn -0.156854 0.079348 0.984429
vn -0.139111 0.070267 0.987781
vn -0.167336 0.053834 0.984429
vn -0.148390 0.047640 0.987781
vn -0.173697 0.026994 0.984429
vn -0.154016 0.023840 0.987781
vn -0.175764 0.013833 0.984335
vn -0.155691 0.012253 0.987730
vn -0.007588 0.096417 0.995312
vn -0.015394 0.094784 0.995379
vn -0.030032 0.091209 0.995379
vn -0.043930 0.085388 0.995379
vn -0.056747 0.077465 0.995379
vn -0.068167 0.067634 0.995379
vn -0.077908 0.056138 0.995379
vn -0.085730 0.043259 0.995379
vn -0.091442 0.029315 0.995379
vn -0.094902 0.014650 0.995379
vn -0.095591 0.007524 0.995392
vn -0.004360 0.055408 0.998454
vn -0.008876 0.054740 0.998461
vn -0.017331 0.052678 0.998461
vn -0.025357 0.049319 0.998461
vn -0.032760 0.044744 0.998461
vn -0.039356 0.039069 0.998461
vn -0.044983 0.032431 0.998461
vn -0.049503 0.024994 0.998461
vn -0.052804 0.016943 0.998461
vn -0.054804 0.008474 0.998461
vn -0.055505 0.004368 0.998449
vn -0.003681 0.046761 0.998899
vn -0.007445 0.045611 0.998932
vn -0.014488 0.043885 0.998932
vn -0.021175 0.041079 0.998932
vn -0.027341 0.037260 0.998932
vn -0.032833 0.032524 0.998932
vn -0.037517 0.026988 0.998932
vn -0.041277 0.020787 0.998932
vn -0.044020 0.014074 0.998932
vn -0.045680 0.007014 0.998932
vn -0.045612 0.003590 0.998953
vn -0.020102 0.020101 0.999596
s 1
f 37/1/1 38/2/2 39/4/3
f 39/4/3 38/2/2 1/3/4
f 38/2/2 40/5/5 1/3/4
f 1/3/4 40/5/5 2/6/6
f 40/5/5 41/9/7 2/6/6
f 2/6/6 41/9/7 3/10/8
f 41/9/7 42/14/9 3/10/8
f 3/10/8 42/14/9 4/15/10
f 42/14/9 43/20/11 4/15/10
f 4/15/10 43/20/11 5/21/12
f 43/20/11 44/26/13 5/21/12
f 5/21/12 44/26/13 6/27/14
f 44/26/13 45/31/15 6/27/14
f 6/27/14 45/31/15 7/32/16
f 45/31/15 46/36/17 7/32/16
f 7/32/16 46/36/17 8/37/18
f 46/36/17 47/41/19 8/37/18
f 8/37/18 47/41/19 9/42/20
f 47/41/19 48/46/21 9/42/20
f 9/42/20 48/46/21 49/47/22
f 39/4/3 1/3/4 50/8/23
f 50/8/23 1/3/4 10/7/24
f 1/3/4 2/6/6 10/7/24
f 10/7/24 2/6/6 11/11/25
f 2/6/6 3/10/8 11/11/25
f 11/11/25 3/10/8 12/16/26
f 3/10/8 4/15/10 12/16/26
f 12/16/26 4/15/10 13/22/27
f 4/15/10 5/21/12 13/22/27
f 13/22/27 5/21/12 14/28/28
f 5/21/12 6/27/14 14/28/28
f 14/28/28 6/27/14 15/33/29
f 6/27/14 7/32/16 15/33/29
f 15/33/29 7/32/16 16/38/30
f 7/32/16 8/37/18 16/38/30
f 16/38/30 8/37/18 17/43/31
f 8/37/18 9/42/20 17/43/31
f 17/43/31 9/42/20 18/48/32
f 9/42/20 49/47/22 18/48/32
f 18/48/32 49/47/22 51/51/33
f 50/8/23 10/7/24 52/13/34
f 52/13/34 10/7/24 19/12/35
f 10/7/24 11/11/25 19/12/35
f 19/12/35 11/11/25 20/17/36
f 11/11/25 12/16/26 20/17/36
f 20/17/36 12/16/26 21/23/37
f 12/16/26 13/22/27 21/23/37
f 21/23/37 13/22/27 22/29/38
f 13/22/27 14/28/28 22/29/38
f 22/29/38 14/28/28 23/34/39
f 14/28/28 15/33/29 23/34/39
f 23/34/39 15/33/29 24/39/40
f 15/33/29 16/38/30 24/39/40
f 24/39/40 16/38/30 25/44/41
f 16/38/30 17/43/31 25/44/41
f 25/44/41 17/43/31 26/49/42
f 17/43/31 18/48/32 26/49/42
f 26/49/42 18/48/32 27/52/43
f 18/48/32 51/51/33 27/52/43
f 27/52/43 51/51/33 53/54/44
f 52/13/34 19/12/35 54/19/45
f 54/19/45 19/12/35 28/18/46
f 19/12/35 20/17/36 28/18/46
f 28/18/46 20/17/36 29/24/47
f 20/17/36 21/23/37 29/24/47
f 29/24/47 21/23/37 30/30/48
f 21/23/37 22/29/38 30/30/48
f 30/30/48 22/29/38 31/35/49
f 22/29/38 23/34/39 31/35/49
f 31/35/49 23/34/39 32/40/50
f 23/34/39 24/39/40 32/40/50
f 32/40/50 24/39/40 33/45/51
f 24/39/40 25/44/41 33/45/51
f 33/45/51 25/44/41 34/50/52
f 25/44/41 26/49/42 34/50/52
f 34/50/52 26/49/42 35/53/53
f 26/49/42 27/52/43 35/53/53
f 35/53/53 27/52/43 36/55/54
f 27/52/43 53/54/44 36/55/54
f 36/55/54 53/54/44 55/56/55
f 54/19/45 28/18/46 56/25/56
f 28/18/46 29/24/47 56/25/56
f 29/24/47 30/30/48 56/25/56
f 30/30/48 31/35/49 56/25/56
f 31/35/49 32/40/50 56/25/56
f 32/40/50 33/45/51 56/25/56
f 33/45/51 34/50/52 56/25/56
f 34/50/52 35/53/53 56/25/56
f 35/53/53 36/55/54 56/25/56
f 36/55/54 55/56/55 56/25/56
