# This file uses centimeters as units for non-parametric coordinates.

v -0.077125 0.486946 0.201506
v -0.152350 0.468886 0.201506
v -0.223824 0.439280 0.201506
v -0.289787 0.398858 0.201506
v -0.348615 0.348615 0.201506
v -0.398858 0.289788 0.201506
v -0.439280 0.223825 0.201506
v -0.468886 0.152350 0.201506
v -0.486946 0.077125 0.201506
v -0.057843 0.365210 0.217869
v -0.114263 0.351665 0.217869
v -0.167868 0.329460 0.217869
v -0.217341 0.299144 0.217869
v -0.261461 0.261461 0.217869
v -0.299144 0.217341 0.217869
v -0.329460 0.167868 0.217869
v -0.351664 0.114263 0.217869
v -0.365209 0.057844 0.217869
v -0.038272 0.241642 0.224532
v -0.075602 0.232680 0.224532
v -0.111071 0.217989 0.224532
v -0.143804 0.197929 0.224532
v -0.172997 0.172997 0.224532
v -0.197929 0.143804 0.224532
v -0.217988 0.111071 0.224532
v -0.232680 0.075602 0.224532
v -0.241642 0.038272 0.224532
v -0.019020 0.120086 0.231713
v -0.037571 0.115632 0.231713
v -0.055197 0.108331 0.231713
v -0.071464 0.098362 0.231714
v -0.085972 0.085972 0.231713
v -0.098362 0.071465 0.231713
v -0.108331 0.055197 0.231713
v -0.115632 0.037571 0.231713
v -0.120086 0.019020 0.231713
v 0.000000 0.616270 0.179498
v -0.096406 0.608683 0.179498
v 0.000000 0.493016 0.201506
v -0.190438 0.586108 0.179498
v -0.279781 0.549101 0.179498
v -0.362234 0.498573 0.179498
v -0.435769 0.435769 0.179498
v -0.498573 0.362234 0.179498
v -0.549100 0.279781 0.179498
v -0.586107 0.190438 0.179498
v -0.608683 0.096406 0.179498
v -0.616270 0.000000 0.179498
v -0.493016 0.000000 0.201506
v 0.000000 0.369762 0.217869
v -0.369762 0.000000 0.217869
v 0.000000 0.244654 0.224532
v -0.244654 0.000000 0.224532
v 0.000000 0.121583 0.231713
v -0.121583 -0.000000 0.231713
v 0.000000 -0.000000 0.235538
vt 0.500000 0.941406
vt 0.484723 0.940204
vt 0.487779 0.920913
vt 0.500000 0.921875
vt 0.469823 0.936627
vt 0.475858 0.918051
vt 0.455665 0.930762
vt 0.464532 0.913360
vt 0.442599 0.922756
vt 0.454079 0.906954
vt 0.430947 0.912803
vt 0.444757 0.898993
vt 0.420994 0.901151
vt 0.436796 0.889671
vt 0.412988 0.888085
vt 0.430390 0.879218
vt 0.407123 0.873927
vt 0.425699 0.867892
vt 0.403546 0.859027
vt 0.422837 0.855971
vt 0.402344 0.843750
vt 0.421875 0.843750
vt 0.490834 0.901622
vt 0.500000 0.902344
vt 0.481894 0.899476
vt 0.473399 0.895957
vt 0.465559 0.891153
vt 0.458568 0.885182
vt 0.452597 0.878191
vt 0.447793 0.870351
vt 0.444274 0.861856
vt 0.442128 0.852916
vt 0.441406 0.843750
vt 0.493889 0.882332
vt 0.500000 0.882812
vt 0.487929 0.880901
vt 0.482266 0.878555
vt 0.477040 0.875352
vt 0.472379 0.871371
vt 0.468398 0.866710
vt 0.465195 0.861484
vt 0.462849 0.855821
vt 0.461418 0.849861
vt 0.460938 0.843750
vt 0.496945 0.863041
vt 0.500000 0.863281
vt 0.493964 0.862325
vt 0.491133 0.861152
vt 0.488520 0.859551
vt 0.486189 0.857561
vt 0.484199 0.855230
vt 0.482598 0.852617
vt 0.481425 0.849786
vt 0.480709 0.846805
vt 0.480469 0.843750
vt 0.500000 0.837500
vn -0.013833 0.175764 0.984335
vn -0.028003 0.173537 0.984429
vn -0.012275 0.155972 0.987685
vn -0.024920 0.153845 0.987781
vn -0.054805 0.167020 0.984429
vn -0.048680 0.148052 0.987781
vn -0.080258 0.156390 0.984429
vn -0.071241 0.138614 0.987781
vn -0.103735 0.141910 0.984429
vn -0.092048 0.125763 0.987781
vn -0.124657 0.123935 0.984429
vn -0.110589 0.109816 0.987781
vn -0.142510 0.102909 0.984429
vn -0.126406 0.091164 0.987781
vn -0.156854 0.079348 0.984429
vn -0.139111 0.070267 0.987781
vn -0.167336 0.053834 0.984429
vn -0.148390 0.047640 0.987781
vn -0.173697 0.026994 0.984429
vn -0.154016 0.023840 0.987781
vn -0.175764 0.013833 0.984335
vn -0.155691 0.012253 0.987730
vn -0.007588 0.096417 0.995312
vn -0.015394 0.094784 0.995379
vn -0.030032 0.091209 0.995379
vn -0.043930 0.085388 0.995379
vn -0.056747 0.077465 0.995379
vn -0.068167 0.067634 0.995379
vn -0.077908 0.056138 0.995379
vn -0.085730 0.043259 0.995379
vn -0.091442 0.029315 0.995379
vn -0.094902 0.014650 0.995379
vn -0.095591 0.007524 0.995392
vn -0.004360 0.055408 0.998454
vn -0.008876 0.054740 0.998461
vn -0.017331 0.052678 0.998461
vn -0.025357 0.049319 0.998461
vn -0.032760 0.044744 0.998461
vn -0.039356 0.039069 0.998461
vn -0.044983 0.032431 0.998461
vn -0.049503 0.024994 0.998461
vn -0.052804 0.016943 0.998461
vn -0.054804 0.008474 0.998461
vn -0.055505 0.004368 0.998449
vn -0.003681 0.046761 0.998899
vn -0.007445 0.045611 0.998932
vn -0.014488 0.043885 0.998932
vn -0.021175 0.041079 0.998932
vn -0.027341 0.037260 0.998932
vn -0.032833 0.032524 0.998932
vn -0.037517 0.026988 0.998932
vn -0.041277 0.020787 0.998932
vn -0.044020 0.014074 0.998932
vn -0.045680 0.007014 0.998932
vn -0.045612 0.003590 0.998953
vn -0.020102 0.020101 0.999596
s 1
f 37/1/1 38/2/2 39/4/3
f 39/4/3 38/2/2 1/3/4
f 38/2/2 40/5/5 1/3/4
f 1/3/4 40/5/5 2/6/6
f 40/5/5 41/7/7 2/6/6
f 2/6/6 41/7/7 3/8/8
f 41/7/7 42/9/9 3/8/8
f 3/8/8 42/9/9 4/10/10
f 42/9/9 43/11/11 4/10/10
f 4/10/10 43/11/11 5/12/12
f 43/11/11 44/13/13 5/12/12
f 5/12/12 44/13/13 6/14/14
f 44/13/13 45/15/15 6/14/14
f 6/14/14 45/15/15 7/16/16
f 45/15/15 46/17/17 7/16/16
f 7/16/16 46/17/17 8/18/18
f 46/17/17 47/19/19 8/18/18
f 8/18/18 47/19/19 9/20/20
f 47/19/19 48/21/21 9/20/20
f 9/20/20 48/21/21 49/22/22
f 39/4/3 1/3/4 50/24/23
f 50/24/23 1/3/4 10/23/24
f 1/3/4 2/6/6 10/23/24
f 10/23/24 2/6/6 11/25/25
f 2/6/6 3/8/8 11/25/25
f 11/25/25 3/8/8 12/26/26
f 3/8/8 4/10/10 12/26/26
f 12/26/26 4/10/10 13/27/27
f 4/10/10 5/12/12 13/27/27
f 13/27/27 5/12/12 14/28/28
f 5/12/12 6/14/14 14/28/28
f 14/28/28 6/14/14 15/29/29
f 6/14/14 7/16/16 15/29/29
f 15/29/29 7/16/16 16/30/30
f 7/16/16 8/18/18 16/30/30
f 16/30/30 8/18/18 17/31/31
f 8/18/18 9/20/20 17/31/31
f 17/31/31 9/20/20 18/32/32
f 9/20/20 49/22/22 18/32/32
f 18/32/32 49/22/22 51/33/33
f 50/24/23 10/23/24 52/35/34
f 52/35/34 10/23/24 19/34/35
f 10/23/24 11/25/25 19/34/35
f 19/34/35 11/25/25 20/36/36
f 11/25/25 12/26/26 20/36/36
f 20/36/36 12/26/26 21/37/37
f 12/26/26 13/27/27 21/37/37
f 21/37/37 13/27/27 22/38/38
f 13/27/27 14/28/28 22/38/38
f 22/38/38 14/28/28 23/39/39
f 14/28/28 15/29/29 23/39/39
f 23/39/39 15/29/29 24/40/40
f 15/29/29 16/30/30 24/40/40
f 24/40/40 16/30/30 25/41/41
f 16/30/30 17/31/31 25/41/41
f 25/41/41 17/31/31 26/42/42
f 17/31/31 18/32/32 26/42/42
f 26/42/42 18/32/32 27/43/43
f 18/32/32 51/33/33 27/43/43
f 27/43/43 51/33/33 53/44/44
f 52/35/34 19/34/35 54/46/45
f 54/46/45 19/34/35 28/45/46
f 19/34/35 20/36/36 28/45/46
f 28/45/46 20/36/36 29/47/47
f 20/36/36 21/37/37 29/47/47
f 29/47/47 21/37/37 30/48/48
f 21/37/37 22/38/38 30/48/48
f 30/48/48 22/38/38 31/49/49
f 22/38/38 23/39/39 31/49/49
f 31/49/49 23/39/39 32/50/50
f 23/39/39 24/40/40 32/50/50
f 32/50/50 24/40/40 33/51/51
f 24/40/40 25/41/41 33/51/51
f 33/51/51 25/41/41 34/52/52
f 25/41/41 26/42/42 34/52/52
f 34/52/52 26/42/42 35/53/53
f 26/42/42 27/43/43 35/53/53
f 35/53/53 27/43/43 36/54/54
f 27/43/43 53/44/44 36/54/54
f 36/54/54 53/44/44 55/55/55
f 54/46/45 28/45/46 56/56/56
f 28/45/46 29/47/47 56/56/56
f 29/47/47 30/48/48 56/56/56
f 30/48/48 31/49/49 56/56/56
f 31/49/49 32/50/50 56/56/56
f 32/50/50 33/51/51 56/56/56
f 33/51/51 34/52/52 56/56/56
f 34/52/52 35/53/53 56/56/56
f 35/53/53 36/54/54 56/56/56
f 36/54/54 55/55/55 56/56/56
