# This file uses centimeters as units for non-parametric coordinates.

v -0.493016 0.000000 0.201506
v -0.486946 -0.077125 0.201506
v -0.468886 -0.152350 0.201506
v -0.439280 -0.223824 0.201506
v -0.398858 -0.289787 0.201506
v -0.348615 -0.348615 0.201506
v -0.289788 -0.398858 0.201506
v -0.223825 -0.439280 0.201506
v -0.152350 -0.468886 0.201506
v -0.077125 -0.486946 0.201506
v -0.369762 0.000000 0.217869
v -0.365209 -0.057843 0.217869
v -0.351664 -0.114263 0.217869
v -0.329460 -0.167868 0.217869
v -0.299144 -0.217341 0.217869
v -0.261461 -0.261461 0.217869
v -0.217341 -0.299144 0.217869
v -0.167868 -0.329460 0.217869
v -0.114263 -0.351664 0.217869
v -0.057844 -0.365209 0.217869
v -0.244654 0.000000 0.224532
v -0.241642 -0.038272 0.224532
v -0.232680 -0.075602 0.224532
v -0.217988 -0.111071 0.224532
v -0.197929 -0.143804 0.224532
v -0.172997 -0.172997 0.224532
v -0.143804 -0.197929 0.224532
v -0.111071 -0.217988 0.224532
v -0.075602 -0.232680 0.224532
v -0.038272 -0.241642 0.224532
v -0.121583 -0.000000 0.231713
v -0.120086 -0.019020 0.231714
v -0.115632 -0.037571 0.231713
v -0.108331 -0.055197 0.231713
v -0.098362 -0.071465 0.231713
v -0.085972 -0.085972 0.231713
v -0.071465 -0.098362 0.231713
v -0.055197 -0.108331 0.231713
v -0.037571 -0.115632 0.231713
v -0.019020 -0.120086 0.231713
v -0.616270 0.000000 0.179498
v -0.608683 -0.096406 0.179498
v -0.586107 -0.190438 0.179498
v -0.549100 -0.279781 0.179498
v -0.498573 -0.362234 0.179498
v -0.435769 -0.435768 0.179498
v -0.362234 -0.498573 0.179498
v -0.279781 -0.549100 0.179498
v -0.190438 -0.586107 0.179498
v -0.096406 -0.608683 0.179498
v -0.000000 -0.616270 0.179498
v -0.000000 -0.493016 0.201506
v -0.000000 -0.369762 0.217869
v -0.000000 -0.244654 0.224532
v -0.000000 -0.121583 0.231713
v 0.000000 -0.000000 0.235538
vt 0.402344 0.843750
vt 0.403546 0.828473
vt 0.422837 0.831529
vt 0.421875 0.843750
vt 0.407123 0.813573
vt 0.425699 0.819608
vt 0.412988 0.799415
vt 0.430390 0.808282
vt 0.420994 0.786349
vt 0.436796 0.797829
vt 0.430947 0.774697
vt 0.444757 0.788507
vt 0.442599 0.764744
vt 0.454079 0.780545
vt 0.455665 0.756738
vt 0.464532 0.774140
vt 0.469823 0.750873
vt 0.475858 0.769449
vt 0.484723 0.747296
vt 0.487779 0.766587
vt 0.500000 0.746094
vt 0.500000 0.765625
vt 0.442128 0.834584
vt 0.441406 0.843750
vt 0.444274 0.825644
vt 0.447793 0.817149
vt 0.452597 0.809309
vt 0.458568 0.802318
vt 0.465559 0.796347
vt 0.473399 0.791543
vt 0.481894 0.788024
vt 0.490834 0.785878
vt 0.500000 0.785156
vt 0.461418 0.837639
vt 0.460938 0.843750
vt 0.462849 0.831679
vt 0.465195 0.826016
vt 0.468398 0.820790
vt 0.472379 0.816129
vt 0.477040 0.812148
vt 0.482266 0.808945
vt 0.487929 0.806599
vt 0.493889 0.805168
vt 0.500000 0.804688
vt 0.480709 0.840695
vt 0.480469 0.843750
vt 0.481425 0.837714
vt 0.482598 0.834883
vt 0.484199 0.832270
vt 0.486189 0.829939
vt 0.488520 0.827949
vt 0.491133 0.826348
vt 0.493965 0.825175
vt 0.496945 0.824459
vt 0.500000 0.824219
vt 0.500000 0.837500
vn -0.175764 -0.013833 0.984335
vn -0.173537 -0.028003 0.984429
vn -0.155972 -0.012275 0.987685
vn -0.153845 -0.024920 0.987781
vn -0.167020 -0.054805 0.984429
vn -0.148052 -0.048680 0.987781
vn -0.156391 -0.080258 0.984429
vn -0.138614 -0.071241 0.987781
vn -0.141910 -0.103735 0.984429
vn -0.125763 -0.092048 0.987781
vn -0.123935 -0.124657 0.984429
vn -0.109816 -0.110589 0.987781
vn -0.102909 -0.142510 0.984429
vn -0.091164 -0.126406 0.987781
vn -0.079348 -0.156854 0.984429
vn -0.070267 -0.139111 0.987781
vn -0.053834 -0.167336 0.984429
vn -0.047640 -0.148390 0.987781
vn -0.026994 -0.173697 0.984429
vn -0.023840 -0.154016 0.987781
vn -0.013833 -0.175765 0.984335
vn -0.012253 -0.155691 0.987730
vn -0.096417 -0.007589 0.995312
vn -0.094784 -0.015394 0.995379
vn -0.091209 -0.030032 0.995379
vn -0.085388 -0.043930 0.995379
vn -0.077465 -0.056747 0.995379
vn -0.067634 -0.068166 0.995379
vn -0.056138 -0.077908 0.995379
vn -0.043259 -0.085730 0.995379
vn -0.029315 -0.091442 0.995379
vn -0.014650 -0.094902 0.995379
vn -0.007523 -0.095591 0.995392
vn -0.055408 -0.004360 0.998454
vn -0.054740 -0.008876 0.998461
vn -0.052678 -0.017330 0.998461
vn -0.049319 -0.025357 0.998461
vn -0.044744 -0.032760 0.998461
vn -0.039069 -0.039356 0.998461
vn -0.032431 -0.044984 0.998461
vn -0.024995 -0.049503 0.998461
vn -0.016943 -0.052804 0.998461
vn -0.008474 -0.054804 0.998461
vn -0.004367 -0.055505 0.998449
vn -0.046761 -0.003679 0.998899
vn -0.045611 -0.007445 0.998932
vn -0.043885 -0.014489 0.998932
vn -0.041078 -0.021175 0.998932
vn -0.037259 -0.027341 0.998932
vn -0.032524 -0.032833 0.998932
vn -0.026988 -0.037517 0.998932
vn -0.020786 -0.041277 0.998932
vn -0.014074 -0.044020 0.998932
vn -0.007015 -0.045680 0.998932
vn -0.003589 -0.045613 0.998953
vn -0.020101 -0.020101 0.999596
s 1
f 41/1/1 42/2/2 1/4/3
f 1/4/3 42/2/2 2/3/4
f 42/2/2 43/5/5 2/3/4
f 2/3/4 43/5/5 3/6/6
f 43/5/5 44/7/7 3/6/6
f 3/6/6 44/7/7 4/8/8
f 44/7/7 45/9/9 4/8/8
f 4/8/8 45/9/9 5/10/10
f 45/9/9 46/11/11 5/10/10
f 5/10/10 46/11/11 6/12/12
f 46/11/11 47/13/13 6/12/12
f 6/12/12 47/13/13 7/14/14
f 47/13/13 48/15/15 7/14/14
f 7/14/14 48/15/15 8/16/16
f 48/15/15 49/17/17 8/16/16
f 8/16/16 49/17/17 9/18/18
f 49/17/17 50/19/19 9/18/18
f 9/18/18 50/19/19 10/20/20
f 50/19/19 51/21/21 10/20/20
f 10/20/20 51/21/21 52/22/22
f 1/4/3 2/3/4 11/24/23
f 11/24/23 2/3/4 12/23/24
f 2/3/4 3/6/6 12/23/24
f 12/23/24 3/6/6 13/25/25
f 3/6/6 4/8/8 13/25/25
f 13/25/25 4/8/8 14/26/26
f 4/8/8 5/10/10 14/26/26
f 14/26/26 5/10/10 15/27/27
f 5/10/10 6/12/12 15/27/27
f 15/27/27 6/12/12 16/28/28
f 6/12/12 7/14/14 16/28/28
f 16/28/28 7/14/14 17/29/29
f 7/14/14 8/16/16 17/29/29
f 17/29/29 8/16/16 18/30/30
f 8/16/16 9/18/18 18/30/30
f 18/30/30 9/18/18 19/31/31
f 9/18/18 10/20/20 19/31/31
f 19/31/31 10/20/20 20/32/32
f 10/20/20 52/22/22 20/32/32
f 20/32/32 52/22/22 53/33/33
f 11/24/23 12/23/24 21/35/34
f 21/35/34 12/23/24 22/34/35
f 12/23/24 13/25/25 22/34/35
f 22/34/35 13/25/25 23/36/36
f 13/25/25 14/26/26 23/36/36
f 23/36/36 14/26/26 24/37/37
f 14/26/26 15/27/27 24/37/37
f 24/37/37 15/27/27 25/38/38
f 15/27/27 16/28/28 25/38/38
f 25/38/38 16/28/28 26/39/39
f 16/28/28 17/29/29 26/39/39
f 26/39/39 17/29/29 27/40/40
f 17/29/29 18/30/30 27/40/40
f 27/40/40 18/30/30 28/41/41
f 18/30/30 19/31/31 28/41/41
f 28/41/41 19/31/31 29/42/42
f 19/31/31 20/32/32 29/42/42
f 29/42/42 20/32/32 30/43/43
f 20/32/32 53/33/33 30/43/43
f 30/43/43 53/33/33 54/44/44
f 21/35/34 22/34/35 31/46/45
f 31/46/45 22/34/35 32/45/46
f 22/34/35 23/36/36 32/45/46
f 32/45/46 23/36/36 33/47/47
f 23/36/36 24/37/37 33/47/47
f 33/47/47 24/37/37 34/48/48
f 24/37/37 25/38/38 34/48/48
f 34/48/48 25/38/38 35/49/49
f 25/38/38 26/39/39 35/49/49
f 35/49/49 26/39/39 36/50/50
f 26/39/39 27/40/40 36/50/50
f 36/50/50 27/40/40 37/51/51
f 27/40/40 28/41/41 37/51/51
f 37/51/51 28/41/41 38/52/52
f 28/41/41 29/42/42 38/52/52
f 38/52/52 29/42/42 39/53/53
f 29/42/42 30/43/43 39/53/53
f 39/53/53 30/43/43 40/54/54
f 30/43/43 54/44/44 40/54/54
f 40/54/54 54/44/44 55/55/55
f 31/46/45 32/45/46 56/56/56
f 32/45/46 33/47/47 56/56/56
f 33/47/47 34/48/48 56/56/56
f 34/48/48 35/49/49 56/56/56
f 35/49/49 36/50/50 56/56/56
f 36/50/50 37/51/51 56/56/56
f 37/51/51 38/52/52 56/56/56
f 38/52/52 39/53/53 56/56/56
f 39/53/53 40/54/54 56/56/56
f 40/54/54 55/55/55 56/56/56
